<?xml version="1.0" encoding="utf-8"?>
<!-- Generator: Adobe Illustrator 27.9.0, SVG Export Plug-In . SVG Version: 6.00 Build 0)  -->
<svg version="1.1" id="Layer_1" xmlns="http://www.w3.org/2000/svg" xmlns:xlink="http://www.w3.org/1999/xlink" x="0px" y="0px"
	 viewBox="0 0 303 92.4" style="enable-background:new 0 0 303 92.4;" xml:space="preserve">
<style type="text/css">
	.st0{fill:#FFFFFF;}
</style>
<rect x="13.1" y="13.2" class="st0" width="52.7" height="2.3"/>
<polygon class="st0" points="48.1,53.9 30.8,53.9 30.8,25.6 13.1,25.6 13.1,23.3 33.1,23.3 33.1,51.5 45.8,51.5 45.8,23.3 
	65.8,23.3 65.8,25.6 48.1,25.6 "/>
<rect x="69.7" y="23.4" class="st0" width="2.3" height="19.6"/>
<rect x="129.5" y="23.4" class="st0" width="2.3" height="19.6"/>
<polygon class="st0" points="100.6,31.4 85.6,15.5 69.2,15.5 69.2,13.2 86.6,13.2 100.6,28 114.8,13.2 132.1,13.2 132.1,15.5 
	115.8,15.5 "/>
<rect x="69.1" y="51.6" class="st0" width="19.1" height="2.2"/>
<polygon class="st0" points="85,33.6 85,53.4 88.2,53.4 88.2,36.6 86.6,33.6 "/>
<polygon class="st0" points="100.6,52 100.6,48.7 86.6,33.6 85.5,33.6 88.2,38.6 "/>
<rect x="113.1" y="51.6" class="st0" width="19.1" height="2.2"/>
<polygon class="st0" points="116.3,33.6 116.3,53.4 113.1,53.4 113.1,36.6 114.6,33.6 "/>
<polygon class="st0" points="100.6,52 100.6,48.7 114.6,33.6 115.7,33.6 113.1,38.6 "/>
<g>
	<path class="st0" d="M144.7,47.7l3.9-0.4c0.2,1.3,0.7,2.3,1.4,2.9c0.7,0.6,1.7,0.9,2.9,0.9c1.3,0,2.3-0.3,2.9-0.8
		c0.7-0.5,1-1.2,1-1.9c0-0.5-0.1-0.9-0.4-1.2c-0.3-0.3-0.8-0.6-1.4-0.9c-0.5-0.2-1.5-0.5-3.2-0.9c-2.2-0.5-3.7-1.2-4.5-2
		c-1.2-1.1-1.8-2.4-1.8-4c0-1,0.3-2,0.9-2.8c0.6-0.9,1.4-1.6,2.5-2c1.1-0.5,2.4-0.7,3.9-0.7c2.5,0,4.4,0.5,5.6,1.6
		c1.3,1.1,1.9,2.6,2,4.4l-4,0.2c-0.2-1-0.5-1.8-1.1-2.2s-1.4-0.7-2.6-0.7c-1.2,0-2.1,0.2-2.7,0.7c-0.4,0.3-0.6,0.7-0.6,1.2
		c0,0.5,0.2,0.9,0.6,1.2c0.5,0.4,1.7,0.9,3.7,1.3s3.4,0.9,4.3,1.4s1.7,1.2,2.2,2c0.5,0.9,0.8,1.9,0.8,3.2c0,1.1-0.3,2.2-0.9,3.2
		c-0.6,1-1.5,1.7-2.7,2.2s-2.6,0.7-4.3,0.7c-2.5,0-4.4-0.6-5.8-1.8C145.8,51.6,144.9,49.9,144.7,47.7"/>
	<path class="st0" d="M152.9,54.8c-2.6,0-4.6-0.6-6-1.8s-2.2-3-2.5-5.3l0-0.3l4.4-0.4l0,0.2c0.2,1.2,0.7,2.2,1.4,2.7
		c0.7,0.6,1.6,0.9,2.7,0.9c1.2,0,2.1-0.3,2.8-0.8c0.6-0.5,0.9-1.1,0.9-1.7c0-0.4-0.1-0.8-0.4-1c-0.2-0.3-0.7-0.6-1.3-0.8
		c-0.5-0.2-1.5-0.5-3.2-0.9c-2.2-0.5-3.8-1.2-4.6-2c-1.3-1.1-1.9-2.6-1.9-4.2c0-1.1,0.3-2.1,0.9-3c0.6-0.9,1.5-1.6,2.6-2.1
		c1.1-0.5,2.5-0.7,4-0.7c2.6,0,4.5,0.6,5.8,1.7c1.3,1.1,2,2.7,2.1,4.6l0,0.3l-4.5,0.2l0-0.2c-0.2-1-0.5-1.6-1-2
		c-0.5-0.4-1.3-0.6-2.4-0.6c-1.1,0-2,0.2-2.6,0.7c-0.4,0.3-0.5,0.6-0.5,1c0,0.4,0.2,0.7,0.5,1c0.5,0.4,1.7,0.8,3.6,1.3
		c2,0.5,3.4,1,4.4,1.5c1,0.5,1.8,1.2,2.3,2.1s0.8,2,0.8,3.3c0,1.2-0.3,2.3-1,3.3c-0.7,1-1.6,1.8-2.8,2.3
		C156.2,54.5,154.7,54.8,152.9,54.8 M145,47.9c0.3,2,1.1,3.6,2.3,4.7c1.3,1.1,3.2,1.7,5.6,1.7c1.7,0,3.1-0.2,4.2-0.7
		c1.1-0.5,2-1.2,2.6-2.1s0.9-2,0.9-3.1c0-1.2-0.3-2.2-0.8-3c-0.5-0.8-1.2-1.5-2.1-1.9c-0.9-0.5-2.4-1-4.3-1.4
		c-2-0.5-3.3-0.9-3.8-1.4c-0.5-0.4-0.7-0.9-0.7-1.4c0-0.6,0.2-1.1,0.8-1.5c0.7-0.5,1.7-0.8,2.9-0.8c1.2,0,2.1,0.2,2.7,0.7
		c0.6,0.5,1,1.2,1.2,2.1l3.5-0.2c-0.1-1.6-0.8-3-1.9-3.9c-1.2-1-3.1-1.6-5.5-1.6c-1.5,0-2.8,0.2-3.8,0.7c-1,0.4-1.8,1.1-2.4,1.9
		c-0.6,0.8-0.8,1.8-0.8,2.7c0,1.5,0.6,2.8,1.8,3.8c0.8,0.8,2.3,1.4,4.4,1.9c1.7,0.4,2.8,0.7,3.2,0.9c0.7,0.3,1.2,0.6,1.6,0.9
		c0.3,0.4,0.5,0.8,0.5,1.4c0,0.8-0.4,1.5-1.1,2.1c-0.7,0.6-1.7,0.9-3.1,0.9c-1.3,0-2.3-0.3-3.1-1c-0.7-0.6-1.2-1.6-1.5-2.8L145,47.9
		z"/>
	<polygon class="st0" points="165,54.2 165,34.3 179.8,34.3 179.8,37.6 169,37.6 169,42 179,42 179,45.4 169,45.4 169,50.8 
		180.1,50.8 180.1,54.2 	"/>
	<path class="st0" d="M180.4,54.4h-15.7V34H180v3.9h-10.8v3.9h10v3.9h-10v4.9h11.1L180.4,54.4L180.4,54.4z M165.3,53.9h14.6v-2.8
		h-11.1v-6h10v-2.8h-10v-4.9h10.8v-2.8h-14.2V53.9z"/>
	<path class="st0" d="M184.3,54.2V34.3h8.5c2.1,0,3.7,0.2,4.6,0.5s1.7,1,2.3,1.9c0.6,0.9,0.9,2,0.9,3.1c0,1.5-0.4,2.7-1.3,3.7
		s-2.2,1.6-3.9,1.8c0.9,0.5,1.6,1.1,2.1,1.7c0.6,0.6,1.3,1.7,2.3,3.2l2.4,3.9h-4.8l-2.9-4.3c-1-1.5-1.7-2.5-2.1-2.9
		c-0.4-0.4-0.8-0.7-1.2-0.8c-0.4-0.2-1.1-0.2-2-0.2h-0.8v8.3C188.3,54.2,184.3,54.2,184.3,54.2z M188.3,42.7h3
		c1.9,0,3.1-0.1,3.6-0.2s0.9-0.4,1.1-0.8s0.4-0.9,0.4-1.5c0-0.7-0.2-1.2-0.5-1.6s-0.9-0.7-1.5-0.8c-0.3,0-1.3-0.1-2.9-0.1h-3.1
		L188.3,42.7L188.3,42.7z"/>
	<path class="st0" d="M202.7,54.4h-5.4l-3-4.5c-1-1.5-1.7-2.5-2.1-2.9c-0.4-0.4-0.7-0.6-1.1-0.8c-0.4-0.1-1.1-0.2-1.9-0.2h-0.6v8.3
		H184V34h8.7c2.2,0,3.7,0.2,4.7,0.5c1,0.4,1.8,1,2.4,2c0.6,1,0.9,2.1,0.9,3.3c0,1.5-0.5,2.9-1.4,3.9c-0.8,0.9-1.9,1.5-3.4,1.8
		c0.6,0.4,1.2,0.9,1.6,1.3c0.6,0.6,1.4,1.7,2.3,3.3L202.7,54.4z M197.5,53.9h4.2l-2.2-3.5c-0.9-1.5-1.7-2.6-2.3-3.2
		c-0.6-0.6-1.2-1.1-2.1-1.6l-0.6-0.4l0.8-0.1c1.7-0.2,2.9-0.8,3.8-1.8s1.2-2.1,1.2-3.5c0-1.1-0.3-2.1-0.8-3
		c-0.6-0.9-1.3-1.5-2.2-1.8c-0.9-0.3-2.5-0.5-4.6-0.5h-8.2v19.4h3.5v-8.3h1.1c1,0,1.6,0.1,2.1,0.2s0.9,0.5,1.3,0.9
		c0.4,0.4,1.1,1.4,2.1,3L197.5,53.9z M191.3,43H188v-5.6h3.4c1.7,0,2.6,0,3,0.1c0.7,0.1,1.3,0.4,1.7,0.9s0.6,1.1,0.6,1.8
		c0,0.7-0.1,1.2-0.4,1.6c-0.3,0.5-0.7,0.8-1.3,0.9C194.5,42.9,193.3,43,191.3,43 M188.6,42.4h2.7c2.4,0,3.2-0.1,3.5-0.2
		c0.4-0.2,0.8-0.4,1-0.7c0.2-0.3,0.4-0.8,0.4-1.3c0-0.6-0.2-1.1-0.5-1.5c-0.3-0.4-0.8-0.6-1.4-0.7c-0.3,0-1.3-0.1-2.9-0.1h-2.9V42.4
		z"/>
	<polygon class="st0" points="209.7,54.2 202.6,34.3 206.9,34.3 212,49 216.8,34.3 221.1,34.3 214,54.2 	"/>
	<path class="st0" d="M214.2,54.4h-4.7L202.2,34h4.9l4.9,14.2l4.7-14.2h4.8L214.2,54.4z M209.9,53.9h3.9l6.9-19.4H217L212,49.8
		l-5.2-15.3h-3.8L209.9,53.9z"/>
	<rect x="223.8" y="34.3" class="st0" width="4" height="19.9"/>
	<path class="st0" d="M228,54.4h-4.6V34h4.6V54.4z M224,53.9h3.5V34.5H224V53.9z"/>
	<path class="st0" d="M245.1,46.9l3.9,1.2c-0.6,2.2-1.6,3.8-3,4.8s-3.2,1.6-5.3,1.6c-2.6,0-4.8-0.9-6.5-2.7
		c-1.7-1.8-2.6-4.3-2.6-7.4c0-3.3,0.9-5.9,2.6-7.7c1.7-1.8,4-2.8,6.8-2.8c2.4,0,4.4,0.7,5.9,2.2c0.9,0.8,1.6,2.1,2,3.7l-4,1
		c-0.2-1-0.7-1.8-1.5-2.5c-0.8-0.6-1.7-0.9-2.7-0.9c-1.5,0-2.7,0.5-3.6,1.6c-0.9,1.1-1.4,2.8-1.4,5.2c0,2.5,0.4,4.3,1.4,5.4
		s2.1,1.6,3.5,1.6c1.1,0,2-0.3,2.8-1C244.2,49.4,244.7,48.3,245.1,46.9"/>
	<path class="st0" d="M240.7,54.8c-2.7,0-5-0.9-6.7-2.8c-1.7-1.8-2.6-4.4-2.6-7.6c0-3.4,0.9-6,2.6-7.9c1.8-1.9,4.1-2.8,6.9-2.8
		c2.5,0,4.6,0.8,6.1,2.2c0.9,0.9,1.6,2.2,2.1,3.8l0.1,0.3l-4.5,1.1l-0.1-0.3c-0.2-1-0.7-1.7-1.4-2.3c-0.7-0.6-1.6-0.8-2.6-0.8
		c-1.4,0-2.5,0.5-3.4,1.5c-0.9,1-1.3,2.7-1.3,5c0,2.4,0.4,4.2,1.3,5.2c0.9,1,1.9,1.5,3.3,1.5c1,0,1.9-0.3,2.6-1
		c0.7-0.6,1.2-1.7,1.6-3.1l0.1-0.3l4.4,1.4l-0.1,0.2c-0.6,2.2-1.6,3.9-3.1,5C244.7,54.2,242.9,54.8,240.7,54.8 M241,34.2
		c-2.7,0-4.9,0.9-6.6,2.7c-1.7,1.8-2.5,4.3-2.5,7.5c0,3,0.8,5.5,2.5,7.2c1.6,1.7,3.8,2.6,6.3,2.6c2.1,0,3.8-0.5,5.1-1.5
		c1.3-1,2.2-2.5,2.8-4.5l-3.4-1.1c-0.4,1.4-0.9,2.4-1.7,3.1c-0.8,0.7-1.8,1.1-2.9,1.1c-1.5,0-2.8-0.6-3.7-1.7
		c-0.9-1.1-1.4-3-1.4-5.5c0-2.4,0.5-4.2,1.4-5.3c1-1.1,2.2-1.7,3.8-1.7c1.1,0,2.1,0.3,2.9,1c0.7,0.6,1.2,1.4,1.5,2.3l3.5-0.8
		c-0.4-1.4-1.1-2.5-1.9-3.3C245.2,34.9,243.3,34.2,241,34.2"/>
	<polygon class="st0" points="253.2,54.2 253.2,34.3 267.9,34.3 267.9,37.6 257.2,37.6 257.2,42 267.2,42 267.2,45.4 257.2,45.4 
		257.2,50.8 268.3,50.8 268.3,54.2 	"/>
	<path class="st0" d="M268.6,54.4h-15.7V34h15.3v3.9h-10.8v3.9h10v3.9h-10v4.9h11.1V54.4z M253.4,53.9H268v-2.8h-11.1v-6h10v-2.8
		h-10v-4.9h10.8v-2.8h-14.2V53.9z"/>
	<path class="st0" d="M271.4,47.7l3.9-0.4c0.2,1.3,0.7,2.3,1.4,2.9c0.7,0.6,1.7,0.9,2.9,0.9c1.3,0,2.3-0.3,2.9-0.8s1-1.2,1-1.9
		c0-0.5-0.1-0.9-0.4-1.2c-0.3-0.3-0.8-0.6-1.5-0.9c-0.5-0.2-1.5-0.5-3.2-0.9c-2.2-0.5-3.7-1.2-4.5-2c-1.2-1.1-1.8-2.4-1.8-4
		c0-1,0.3-2,0.9-2.8c0.6-0.9,1.4-1.6,2.5-2c1.1-0.5,2.4-0.7,3.9-0.7c2.5,0,4.4,0.5,5.6,1.6c1.3,1.1,1.9,2.6,2,4.4l-4,0.2
		c-0.2-1-0.5-1.8-1.1-2.2c-0.6-0.5-1.4-0.7-2.5-0.7c-1.2,0-2.1,0.2-2.7,0.7c-0.4,0.3-0.6,0.7-0.6,1.2c0,0.5,0.2,0.9,0.6,1.2
		c0.5,0.4,1.7,0.9,3.7,1.3s3.4,0.9,4.3,1.4s1.7,1.2,2.2,2c0.5,0.9,0.8,1.9,0.8,3.2c0,1.1-0.3,2.2-1,3.2s-1.5,1.7-2.7,2.2
		s-2.6,0.7-4.3,0.7c-2.5,0-4.5-0.6-5.8-1.8C272.5,51.6,271.7,49.9,271.4,47.7"/>
	<path class="st0" d="M279.6,54.8c-2.6,0-4.6-0.6-6-1.8s-2.2-3-2.5-5.3l0-0.3l4.4-0.4l0,0.2c0.2,1.2,0.7,2.2,1.4,2.7
		c0.7,0.6,1.6,0.9,2.7,0.9c1.2,0,2.1-0.3,2.8-0.8c0.6-0.5,0.9-1.1,0.9-1.7c0-0.4-0.1-0.8-0.4-1c-0.2-0.3-0.7-0.6-1.3-0.8
		c-0.5-0.2-1.5-0.5-3.2-0.9c-2.2-0.5-3.8-1.2-4.6-2c-1.3-1.1-1.9-2.6-1.9-4.2c0-1.1,0.3-2.1,0.9-3c0.6-0.9,1.5-1.6,2.6-2.1
		c1.1-0.5,2.5-0.7,4-0.7c2.5,0,4.5,0.6,5.8,1.7c1.3,1.1,2,2.7,2.1,4.6l0,0.3l-4.5,0.2l0-0.2c-0.2-1-0.5-1.6-1-2
		c-0.5-0.4-1.3-0.6-2.4-0.6c-1.1,0-2,0.2-2.6,0.7c-0.4,0.3-0.5,0.6-0.5,1c0,0.4,0.2,0.7,0.5,1c0.5,0.4,1.7,0.8,3.6,1.3
		c2,0.5,3.5,1,4.4,1.5c1,0.5,1.8,1.2,2.3,2.1s0.8,2,0.8,3.3c0,1.2-0.3,2.3-1,3.3c-0.7,1-1.6,1.8-2.8,2.3
		C282.9,54.5,281.4,54.8,279.6,54.8 M271.7,47.9c0.3,2,1.1,3.6,2.3,4.7c1.3,1.1,3.2,1.7,5.6,1.7c1.7,0,3.1-0.2,4.2-0.7
		c1.1-0.5,2-1.2,2.6-2.1s0.9-2,0.9-3.1c0-1.2-0.3-2.2-0.8-3c-0.5-0.8-1.2-1.5-2.1-1.9c-0.9-0.5-2.4-1-4.3-1.4
		c-2-0.5-3.3-0.9-3.8-1.4c-0.5-0.4-0.7-0.9-0.7-1.4c0-0.6,0.2-1.1,0.8-1.5c0.7-0.5,1.7-0.8,2.9-0.8c1.2,0,2.1,0.2,2.7,0.7
		c0.6,0.5,1,1.2,1.2,2.1l3.5-0.2c-0.1-1.6-0.8-3-1.9-3.9c-1.2-1-3-1.6-5.5-1.6c-1.5,0-2.8,0.2-3.8,0.7c-1,0.4-1.8,1.1-2.4,1.9
		c-0.5,0.8-0.8,1.8-0.8,2.7c0,1.5,0.6,2.8,1.8,3.8c0.8,0.8,2.3,1.4,4.4,1.9c1.7,0.4,2.8,0.7,3.2,0.9c0.7,0.3,1.2,0.6,1.6,0.9
		c0.3,0.4,0.5,0.8,0.5,1.4c0,0.8-0.4,1.5-1.1,2.1c-0.7,0.6-1.7,0.9-3.1,0.9c-1.3,0-2.3-0.3-3.1-1c-0.7-0.6-1.2-1.6-1.5-2.8
		L271.7,47.9z"/>
</g>
<g>
	<path class="st0" d="M35.1,76v-9.5h-3.5v-2h9.4v2h-3.5V76H35.1z"/>
	<path class="st0" d="M45.6,76.2c-1.3,0-2.3-0.4-3-1.2s-1.1-1.9-1.1-3.4c0-1.4,0.4-2.4,1.1-3.2s1.7-1.2,3-1.2c1.3,0,2.3,0.4,3,1.2
		c0.7,0.8,1.1,1.9,1.1,3.4c0,0,0,0.1,0,0.1c0,0.1,0,0.3,0,0.4h-5.8c0.1,0.7,0.2,1.2,0.5,1.5c0.3,0.4,0.8,0.6,1.6,0.6
		c0.3,0,0.7-0.1,0.9-0.3c0.3-0.2,0.5-0.4,0.5-0.7h2.3c-0.2,0.9-0.6,1.6-1.4,2S46.6,76.2,45.6,76.2z M47.3,70.8
		c0-0.5-0.2-0.9-0.4-1.2c-0.3-0.4-0.7-0.6-1.3-0.6c-0.6,0-1,0.2-1.3,0.7c-0.2,0.3-0.3,0.6-0.4,1.1H47.3z"/>
	<path class="st0" d="M58.5,72.8c-0.1,1.1-0.5,1.9-1.2,2.5c-0.7,0.6-1.6,0.9-2.6,0.9c-1.3,0-2.3-0.4-3-1.2s-1.1-1.9-1.1-3.3
		c0-1.4,0.4-2.5,1.1-3.3c0.7-0.8,1.7-1.2,3-1.2c1.1,0,2,0.3,2.7,0.9c0.7,0.6,1.1,1.4,1.1,2.4h-2.3c0-0.4-0.2-0.8-0.4-1
		s-0.6-0.4-1.1-0.4c-0.6,0-1,0.2-1.3,0.7c-0.3,0.5-0.4,1.1-0.4,2c0,0.8,0.1,1.5,0.4,1.9c0.3,0.4,0.7,0.7,1.3,0.7
		c0.4,0,0.8-0.1,1-0.4c0.3-0.3,0.4-0.7,0.5-1.1H58.5z"/>
	<path class="st0" d="M60.1,76V64.5h2.2v4.1l0.2-0.3c0.6-0.7,1.4-1.1,2.4-1.1c0.9,0,1.6,0.3,2.1,0.8c0.5,0.5,0.8,1.3,0.8,2.2V76
		h-2.3v-5.3c0-0.5-0.1-0.9-0.3-1.2s-0.6-0.4-1-0.4c-0.6,0-1,0.2-1.4,0.5c-0.3,0.4-0.5,0.9-0.5,1.5V76H60.1z"/>
	<path class="st0" d="M69.9,76v-8.6h2.1v1.3c0.1-0.2,0.2-0.3,0.3-0.4c0.6-0.7,1.4-1.1,2.4-1.1c0.9,0,1.6,0.3,2.1,0.8
		c0.5,0.5,0.8,1.3,0.8,2.2V76h-2.3v-5.3c0-0.5-0.1-0.9-0.3-1.2s-0.6-0.4-1-0.4c-0.6,0-1,0.2-1.4,0.5c-0.3,0.4-0.5,0.9-0.5,1.5V76
		H69.9z"/>
	<path class="st0" d="M79.8,64.4h2.3v2.1h-2.3V64.4z M79.8,76v-8.6h2.3V76H79.8z"/>
	<path class="st0" d="M91.6,72.8c-0.1,1.1-0.5,1.9-1.2,2.5c-0.7,0.6-1.6,0.9-2.6,0.9c-1.3,0-2.3-0.4-3-1.2s-1.1-1.9-1.1-3.3
		c0-1.4,0.4-2.5,1.1-3.3c0.7-0.8,1.7-1.2,3-1.2c1.1,0,2,0.3,2.7,0.9c0.7,0.6,1.1,1.4,1.1,2.4h-2.3c0-0.4-0.2-0.8-0.4-1
		s-0.6-0.4-1.1-0.4c-0.6,0-1,0.2-1.3,0.7c-0.3,0.5-0.4,1.1-0.4,2c0,0.8,0.1,1.5,0.4,1.9c0.3,0.4,0.7,0.7,1.3,0.7
		c0.4,0,0.8-0.1,1-0.4c0.3-0.3,0.4-0.7,0.5-1.1H91.6z"/>
	<path class="st0" d="M95.2,76.2c-0.8,0-1.4-0.2-1.9-0.7s-0.7-1-0.7-1.8c0-0.8,0.2-1.4,0.7-1.9c0.4-0.5,1.1-0.8,1.9-0.9l1.5-0.2
		c0.4-0.1,0.7-0.1,1-0.3c0.1-0.1,0.2-0.2,0.3-0.3c0-0.1,0.1-0.2,0.1-0.3c0,0,0-0.1,0-0.1c0-0.2-0.2-0.4-0.4-0.6
		c-0.3-0.2-0.6-0.2-1.1-0.2c-0.4,0-0.8,0.1-1,0.3c-0.2,0.2-0.4,0.5-0.4,0.9h-2.2c0-1,0.4-1.7,1-2.2c0.6-0.5,1.6-0.7,2.8-0.7
		c1.1,0,1.9,0.2,2.5,0.7c0.6,0.4,0.9,1.1,0.9,1.8v4.8c0,0.4,0,0.6,0.1,0.8c0.1,0.2,0.2,0.3,0.4,0.4V76h-2.4c-0.1-0.3-0.2-0.7-0.2-1
		l0,0C97.2,75.8,96.3,76.2,95.2,76.2z M97.9,72.8v-1c-0.3,0.1-0.6,0.3-1,0.4L96,72.4c-0.4,0.1-0.7,0.2-0.9,0.4s-0.3,0.4-0.3,0.7
		c0,0.3,0.1,0.6,0.3,0.8c0.2,0.2,0.4,0.3,0.8,0.3c0.7,0,1.3-0.3,1.7-0.8c0.1-0.1,0.2-0.2,0.2-0.4C97.9,73.2,97.9,73,97.9,72.8z"/>
	<path class="st0" d="M102.2,76V64.5h2.2V76H102.2z"/>
	<path class="st0" d="M113.5,76h-2.2V64.5h3.5l2.1,9.2l2.1-9.2h3.5V76h-2.2v-9.7L118,76h-2.4l-2.2-9.9V76z"/>
	<path class="st0" d="M126.6,76.2c-0.8,0-1.4-0.2-1.9-0.7s-0.7-1-0.7-1.8c0-0.8,0.2-1.4,0.7-1.9c0.4-0.5,1.1-0.8,1.9-0.9l1.5-0.2
		c0.4-0.1,0.7-0.1,1-0.3c0.1-0.1,0.2-0.2,0.3-0.3c0-0.1,0.1-0.2,0.1-0.3c0,0,0-0.1,0-0.1c0-0.2-0.2-0.4-0.4-0.6
		c-0.3-0.2-0.6-0.2-1.1-0.2c-0.4,0-0.8,0.1-1,0.3c-0.2,0.2-0.4,0.5-0.4,0.9h-2.2c0-1,0.4-1.7,1-2.2c0.6-0.5,1.6-0.7,2.8-0.7
		c1.1,0,1.9,0.2,2.5,0.7c0.6,0.4,0.9,1.1,0.9,1.8v4.8c0,0.4,0,0.6,0.1,0.8c0.1,0.2,0.2,0.3,0.4,0.4V76h-2.4c-0.1-0.3-0.2-0.7-0.2-1
		l0,0C128.6,75.8,127.7,76.2,126.6,76.2z M129.3,72.8v-1c-0.3,0.1-0.6,0.3-1,0.4l-0.8,0.2c-0.4,0.1-0.7,0.2-0.9,0.4
		s-0.3,0.4-0.3,0.7c0,0.3,0.1,0.6,0.3,0.8c0.2,0.2,0.4,0.3,0.8,0.3c0.7,0,1.3-0.3,1.7-0.8c0.1-0.1,0.2-0.2,0.2-0.4
		C129.3,73.2,129.3,73,129.3,72.8z"/>
	<path class="st0" d="M133.5,76v-8.6h2.1V69c0.1-0.2,0.2-0.3,0.3-0.5c0.5-0.8,1.2-1.3,2-1.3l0.5,0v2.3c-0.2,0-0.4,0-0.7,0
		c-0.7,0-1.2,0.2-1.5,0.5c-0.3,0.3-0.5,0.9-0.5,1.5V76H133.5z"/>
	<path class="st0" d="M139.8,64.4h2.3v2.1h-2.3V64.4z M139.8,76v-8.6h2.3V76H139.8z"/>
	<path class="st0" d="M144.2,76v-8.6h2.1v1.3c0.1-0.2,0.2-0.3,0.3-0.4c0.6-0.7,1.4-1.1,2.4-1.1c0.9,0,1.6,0.3,2.1,0.8
		c0.5,0.5,0.8,1.3,0.8,2.2V76h-2.3v-5.3c0-0.5-0.1-0.9-0.3-1.2s-0.6-0.4-1-0.4c-0.6,0-1,0.2-1.4,0.5c-0.3,0.4-0.5,0.9-0.5,1.5V76
		H144.2z"/>
	<path class="st0" d="M157.4,76.2c-1.3,0-2.3-0.4-3-1.2s-1.1-1.9-1.1-3.4c0-1.4,0.4-2.4,1.1-3.2c0.7-0.8,1.7-1.2,3-1.2
		c1.3,0,2.3,0.4,3,1.2c0.7,0.8,1.1,1.9,1.1,3.4c0,0,0,0.1,0,0.1c0,0.1,0,0.3,0,0.4h-5.8c0.1,0.7,0.2,1.2,0.5,1.5
		c0.3,0.4,0.8,0.6,1.6,0.6c0.3,0,0.7-0.1,0.9-0.3s0.5-0.4,0.5-0.7h2.3c-0.2,0.9-0.7,1.6-1.4,2S158.5,76.2,157.4,76.2z M159.1,70.8
		c0-0.5-0.2-0.9-0.4-1.2c-0.3-0.4-0.7-0.6-1.3-0.6c-0.6,0-1,0.2-1.3,0.7c-0.2,0.3-0.3,0.6-0.4,1.1H159.1z"/>
	<path class="st0" d="M177.5,72c-0.1,1.3-0.7,2.4-1.6,3.2c-0.9,0.8-2,1.2-3.4,1.2c-1.6,0-2.9-0.5-3.9-1.6s-1.4-2.5-1.4-4.4
		c0-1.9,0.5-3.4,1.4-4.5s2.2-1.7,3.9-1.7c1.4,0,2.5,0.4,3.4,1.1c0.9,0.7,1.4,1.7,1.6,3h-2.4c-0.1-0.6-0.3-1.1-0.8-1.5
		c-0.5-0.4-1-0.6-1.8-0.6c-0.9,0-1.6,0.4-2.1,1.1c-0.5,0.7-0.8,1.7-0.8,3c0,1.2,0.3,2.2,0.8,2.9c0.5,0.7,1.2,1,2.1,1
		c0.7,0,1.3-0.2,1.8-0.6c0.5-0.4,0.7-1,0.8-1.7H177.5z"/>
	<path class="st0" d="M183.1,76.2c-1.3,0-2.4-0.4-3.2-1.2s-1.2-1.9-1.2-3.2c0-1.4,0.4-2.5,1.2-3.3c0.8-0.8,1.9-1.2,3.2-1.2
		c1.3,0,2.4,0.4,3.2,1.2c0.8,0.8,1.2,1.9,1.2,3.3c0,1.4-0.4,2.4-1.2,3.2C185.5,75.8,184.4,76.2,183.1,76.2z M183.1,74.3
		c0.7,0,1.2-0.2,1.5-0.7c0.4-0.4,0.5-1.1,0.5-1.9c0-0.9-0.2-1.5-0.5-2c-0.4-0.4-0.9-0.7-1.5-0.7c-0.7,0-1.2,0.2-1.5,0.7
		c-0.3,0.4-0.5,1.1-0.5,2c0,0.8,0.2,1.5,0.5,1.9C181.9,74.1,182.4,74.3,183.1,74.3z"/>
	<path class="st0" d="M189,76v-8.6h2.1v1.3c0.1-0.2,0.2-0.3,0.3-0.4c0.6-0.7,1.4-1.1,2.4-1.1c0.9,0,1.6,0.3,2.1,0.8
		c0.5,0.5,0.8,1.3,0.8,2.2V76h-2.3v-5.3c0-0.5-0.1-0.9-0.3-1.2c-0.2-0.3-0.6-0.4-1-0.4c-0.6,0-1,0.2-1.4,0.5
		c-0.3,0.4-0.5,0.9-0.5,1.5V76H189z"/>
	<path class="st0" d="M202.8,76c-0.4,0-0.8,0-1.4,0c-0.8,0-1.4-0.1-1.7-0.4c-0.3-0.3-0.5-0.8-0.5-1.4V69H198v-1.6h1.2v-2.3h2.2v2.3
		h1.4V69h-1.4v4.9c0,0.2,0.1,0.3,0.2,0.4c0.1,0.1,0.4,0.1,0.7,0.1h0.5V76z"/>
	<path class="st0" d="M204.2,76v-8.6h2.1V69c0.1-0.2,0.2-0.3,0.3-0.5c0.5-0.8,1.2-1.3,2-1.3l0.5,0v2.3c-0.2,0-0.4,0-0.7,0
		c-0.7,0-1.2,0.2-1.5,0.5c-0.3,0.3-0.5,0.9-0.5,1.5V76H204.2z"/>
	<path class="st0" d="M212.5,76.2c-0.8,0-1.4-0.2-1.9-0.7s-0.7-1-0.7-1.8c0-0.8,0.2-1.4,0.7-1.9c0.4-0.5,1.1-0.8,1.9-0.9l1.5-0.2
		c0.4-0.1,0.7-0.1,1-0.3c0.1-0.1,0.2-0.2,0.3-0.3c0-0.1,0.1-0.2,0.1-0.3c0,0,0-0.1,0-0.1c0-0.2-0.2-0.4-0.4-0.6
		c-0.3-0.2-0.6-0.2-1.1-0.2c-0.4,0-0.8,0.1-1,0.3c-0.2,0.2-0.4,0.5-0.4,0.9h-2.2c0-1,0.4-1.7,1-2.2s1.6-0.7,2.8-0.7
		c1.1,0,1.9,0.2,2.5,0.7c0.6,0.4,0.9,1.1,0.9,1.8v4.8c0,0.4,0,0.6,0.1,0.8c0.1,0.2,0.2,0.3,0.4,0.4V76h-2.4c-0.1-0.3-0.2-0.7-0.2-1
		l0,0C214.5,75.8,213.6,76.2,212.5,76.2z M215.2,72.8v-1c-0.3,0.1-0.6,0.3-1,0.4l-0.8,0.2c-0.4,0.1-0.7,0.2-0.9,0.4
		c-0.2,0.2-0.3,0.4-0.3,0.7c0,0.3,0.1,0.6,0.3,0.8c0.2,0.2,0.4,0.3,0.8,0.3c0.7,0,1.3-0.3,1.7-0.8c0.1-0.1,0.2-0.2,0.2-0.4
		C215.2,73.2,215.2,73,215.2,72.8z"/>
	<path class="st0" d="M226.8,72.8c-0.1,1.1-0.5,1.9-1.2,2.5s-1.6,0.9-2.6,0.9c-1.3,0-2.3-0.4-3-1.2c-0.7-0.8-1.1-1.9-1.1-3.3
		c0-1.4,0.4-2.5,1.1-3.3c0.7-0.8,1.7-1.2,3-1.2c1.1,0,2,0.3,2.7,0.9c0.7,0.6,1.1,1.4,1.1,2.4h-2.3c0-0.4-0.2-0.8-0.4-1
		c-0.3-0.3-0.6-0.4-1.1-0.4c-0.6,0-1,0.2-1.3,0.7c-0.3,0.5-0.4,1.1-0.4,2c0,0.8,0.1,1.5,0.4,1.9s0.7,0.7,1.3,0.7
		c0.4,0,0.8-0.1,1-0.4c0.3-0.3,0.4-0.7,0.5-1.1H226.8z"/>
	<path class="st0" d="M232.3,76c-0.4,0-0.8,0-1.4,0c-0.8,0-1.4-0.1-1.7-0.4c-0.3-0.3-0.5-0.8-0.5-1.4V69h-1.2v-1.6h1.2v-2.3h2.2v2.3
		h1.4V69h-1.4v4.9c0,0.2,0.1,0.3,0.2,0.4c0.1,0.1,0.4,0.1,0.7,0.1h0.5V76z"/>
	<path class="st0" d="M233.8,64.4h2.3v2.1h-2.3V64.4z M233.8,76v-8.6h2.3V76H233.8z"/>
	<path class="st0" d="M238.2,76v-8.6h2.1v1.3c0.1-0.2,0.2-0.3,0.3-0.4c0.6-0.7,1.4-1.1,2.4-1.1c0.9,0,1.6,0.3,2.1,0.8
		c0.5,0.5,0.8,1.3,0.8,2.2V76h-2.3v-5.3c0-0.5-0.1-0.9-0.3-1.2c-0.2-0.3-0.6-0.4-1-0.4c-0.6,0-1,0.2-1.4,0.5
		c-0.3,0.4-0.5,0.9-0.5,1.5V76H238.2z"/>
	<path class="st0" d="M251.8,77.8c0.6,0,1.1-0.2,1.4-0.5c0.3-0.3,0.4-0.8,0.4-1.5v-1l-0.2,0.3c-0.5,0.7-1.2,1-2.1,1
		c-1.1,0-2-0.4-2.7-1.2c-0.7-0.8-1-1.9-1-3.2c0-1.3,0.3-2.4,1-3.2c0.7-0.8,1.5-1.2,2.6-1.2c1,0,1.7,0.3,2.2,1
		c0.1,0.1,0.2,0.3,0.3,0.4v-1.3h2.1v8.1c0,1.3-0.3,2.3-1,3c-0.7,0.6-1.7,1-3.1,1c-1.2,0-2.1-0.2-2.8-0.7s-1.1-1.1-1.1-1.9h2.5
		c0,0.3,0.2,0.5,0.4,0.6C250.9,77.7,251.3,77.8,251.8,77.8z M251.8,69.2c-0.6,0-1,0.2-1.4,0.7s-0.5,1.1-0.5,1.9
		c0,0.8,0.2,1.4,0.5,1.8c0.3,0.4,0.8,0.7,1.4,0.7c0.6,0,1.1-0.2,1.4-0.7s0.5-1.1,0.5-1.8c0-0.8-0.2-1.4-0.5-1.8
		S252.4,69.2,251.8,69.2z"/>
	<path class="st0" d="M272.4,72c-0.1,1.3-0.7,2.4-1.6,3.2c-0.9,0.8-2,1.2-3.4,1.2c-1.6,0-2.9-0.5-3.9-1.6s-1.4-2.5-1.4-4.4
		c0-1.9,0.5-3.4,1.4-4.5s2.2-1.7,3.9-1.7c1.4,0,2.5,0.4,3.4,1.1c0.9,0.7,1.4,1.7,1.6,3h-2.4c-0.1-0.6-0.3-1.1-0.8-1.5
		c-0.5-0.4-1-0.6-1.8-0.6c-0.9,0-1.6,0.4-2.1,1.1c-0.5,0.7-0.8,1.7-0.8,3c0,1.2,0.3,2.2,0.8,2.9c0.5,0.7,1.2,1,2.1,1
		c0.7,0,1.3-0.2,1.8-0.6c0.5-0.4,0.7-1,0.8-1.7H272.4z"/>
	<path class="st0" d="M277.9,76.2c-1.3,0-2.4-0.4-3.2-1.2s-1.2-1.9-1.2-3.2c0-1.4,0.4-2.5,1.2-3.3c0.8-0.8,1.9-1.2,3.2-1.2
		c1.3,0,2.4,0.4,3.2,1.2c0.8,0.8,1.2,1.9,1.2,3.3c0,1.4-0.4,2.4-1.2,3.2C280.3,75.8,279.2,76.2,277.9,76.2z M277.9,74.3
		c0.7,0,1.2-0.2,1.5-0.7c0.4-0.4,0.5-1.1,0.5-1.9c0-0.9-0.2-1.5-0.5-2c-0.4-0.4-0.9-0.7-1.5-0.7c-0.7,0-1.2,0.2-1.5,0.7
		c-0.3,0.4-0.5,1.1-0.5,2c0,0.8,0.2,1.5,0.5,1.9C276.7,74.1,277.2,74.3,277.9,74.3z"/>
	<path class="st0" d="M285.3,76c-0.4,0-0.8-0.2-1.1-0.5c-0.3-0.3-0.4-0.7-0.4-1.1c0-0.4,0.1-0.8,0.4-1.1c0.3-0.3,0.7-0.5,1.1-0.5h0
		c0.4,0,0.8,0.2,1.1,0.5c0.3,0.3,0.4,0.7,0.4,1.1c0,0.4-0.1,0.8-0.4,1.1C286.1,75.9,285.8,76,285.3,76L285.3,76z"/>
</g>
</svg>
